# xmcd CD database file
#
# Track frame offsets:
#	150
#	19912
#	41222
#	55967
#	75595
#	91437
#	109667
#	132292
#	157882
#	175327
#	192595
#	212387
#	234245
#	256000
#	271872
#	286430
#	302607
#	325555
#
# Disc length: 4654 seconds
#
# Revision: 1
# Processed by: cddbd v1.4PL0 Copyright (c) Steve Scherf et al.
# Submitted via: CDex 1.50Beta7
#
DISCID=ec122c12
DTITLE=황정민 - FM대행진
DYEAR=2002
DGENRE=Pop
TTITLE0=I Love Your Smile - Cocolee
TTITLE1=She Bangs - Ricky Martin
TTITLE2=Happy - Alexia
TTITLE3=I lay My Love On you-Wetlife
TTITLE4=스케치북 - Toy
TTITLE5=비오는 거리 - 이승훈
TTITLE6=Third Time Lucky - Basia
TTITLE7=Corner Of The Earth - JamroQuai
TTITLE8=Ain't It Fuuny - Jennifer Lopez
TTITLE9=I Need to know - Marc Anthony
TTITLE10=Kiss From A Rose - Seal
TTITLE11=동병상련 - 델리스파이스
TTITLE12=잊혀지는 것 - 동물원
TTITLE13=7년간의 사랑 - 유영석
TTITLE14=Ready or Not - Evan and Jaron
TTITLE15=Irresistible - Jessica Simpson
TTITLE16=You Remind Me - Mandy Moore
TTITLE17=Sunday Morning Call - Oasis
EXTD=YEAR: 2002
EXTT0=
EXTT1=
EXTT2=
EXTT3=
EXTT4=
EXTT5=
EXTT6=
EXTT7=
EXTT8=
EXTT9=
EXTT10=
EXTT11=
EXTT12=
EXTT13=
EXTT14=
EXTT15=
EXTT16=
EXTT17=
PLAYORDER=
